<svg xmlns="http://www.w3.org/2000/svg">
<symbol id="icon-sun" viewBox="0 0 512 512">
<path d="M256 0c4.4 0 8 3.6 8 8l0 96c0 4.4-3.6 8-8 8s-8-3.6-8-8l0-96c0-4.4 3.6-8 8-8zM0 256c0-4.4 3.6-8 8-8l96 0c4.4 0 8 3.6 8 8s-3.6 8-8 8L8 264c-4.4 0-8-3.6-8-8zm400 0c0-4.4 3.6-8 8-8l96 0c4.4 0 8 3.6 8 8s-3.6 8-8 8l-96 0c-4.4 0-8-3.6-8-8zM256 400c4.4 0 8 3.6 8 8l0 96c0 4.4-3.6 8-8 8s-8-3.6-8-8l0-96c0-4.4 3.6-8 8-8zM75 75c3.1-3.1 8.2-3.1 11.3 0l67.9 67.9c3.1 3.1 3.1 8.2 0 11.3s-8.2 3.1-11.3 0L75 86.3c-3.1-3.1-3.1-8.2 0-11.3zm0 362c-3.1-3.1-3.1-8.2 0-11.3l67.9-67.9c3.1-3.1 8.2-3.1 11.3 0s3.1 8.2 0 11.3L86.3 437c-3.1 3.1-8.2 3.1-11.3 0zM357.8 154.2c-3.1-3.1-3.1-8.2 0-11.3L425.7 75c3.1-3.1 8.2-3.1 11.3 0s3.1 8.2 0 11.3l-67.9 67.9c-3.1 3.1-8.2 3.1-11.3 0zm0 203.6c3.1-3.1 8.2-3.1 11.3 0L437 425.7c3.1 3.1 3.1 8.2 0 11.3s-8.2 3.1-11.3 0l-67.9-67.9c-3.1-3.1-3.1-8.2 0-11.3zM360 256a104 104 0 1 0 -208 0 104 104 0 1 0 208 0zm-224 0a120 120 0 1 1 240 0 120 120 0 1 1 -240 0z"/>
</symbol>

<symbol id="icon-moon" viewBox="0 0 512 512">
<path d="M190.6 66.8c-38.8 37.8-62.9 90.7-62.9 149.2c0 108.9 83.5 198.3 189.9 207.3C289.8 439 257.7 448 223.5 448C117.7 448 32 362.1 32 256c0-94.8 68.5-173.5 158.6-189.2zm66.1-21.5c-1.5-6.9-7.3-11.9-14.3-12.5c-6.3-.5-12.6-.8-19-.8C100 32 0 132.3 0 256S100 480 223.5 480c60.6 0 115.5-24.2 155.8-63.4c5-4.9 6.3-12.5 3.1-18.7s-10.1-9.7-17-8.5c-9.8 1.7-19.8 2.6-30.1 2.6c-96.9 0-175.5-78.8-175.5-176c0-65.8 36-123.1 89.3-153.3c6.1-3.5 9.2-10.5 7.7-17.3z"/>
</symbol>

</svg>